HIERARCHY
ROOT Hips
{
    OFFSET 0.000000 0.000000 0.000000
    CHANNELS 6 Xposition Yposition Zposition Zrotation Xrotation Yrotation
    JOINT Spine
    {
        OFFSET -0.000000 0.070888 0.000000
        CHANNELS 3 Zrotation Xrotation Yrotation
        JOINT Spine1
        {
            OFFSET -0.000000 0.202946 0.000000
            CHANNELS 3 Zrotation Xrotation Yrotation
            JOINT Neck
            {
                OFFSET -0.000000 0.220236 0.000000
                CHANNELS 3 Zrotation Xrotation Yrotation
                JOINT Head
                {
                    OFFSET -0.000000 0.134811 0.017395
                    CHANNELS 3 Zrotation Xrotation Yrotation
                    End Site
                    {
                        OFFSET -0.000000 0.172897 0.000000
                    }
                }
            }
            JOINT LeftShoulder
            {
                OFFSET 0.034631 0.183264 -0.000217
                CHANNELS 3 Zrotation Xrotation Yrotation
                JOINT LeftArm
                {
                    OFFSET 0.111751 0.000000 0.000000
                    CHANNELS 3 Zrotation Xrotation Yrotation
                    JOINT LeftForeArm
                    {
                        OFFSET 0.261541 0.000000 0.000000
                        CHANNELS 3 Zrotation Xrotation Yrotation
                        JOINT LeftHand
                        {
                            OFFSET 0.235169 0.000000 0.000000
                            CHANNELS 3 Zrotation Xrotation Yrotation
                            End Site
                            {
                                OFFSET 0.129673 0.000000 0.000000
                            }
                        }
                    }
                }
            }
            JOINT RightShoulder
            {
                OFFSET -0.034507 0.183264 -0.000217
                CHANNELS 3 Zrotation Xrotation Yrotation
                JOINT RightArm
                {
                    OFFSET -0.111751 0.000000 0.000000
                    CHANNELS 3 Zrotation Xrotation Yrotation
                    JOINT RightForeArm
                    {
                        OFFSET -0.261541 0.000000 0.000000
                        CHANNELS 3 Zrotation Xrotation Yrotation
                        JOINT RightHand
                        {
                            OFFSET -0.235169 0.000000 0.000000
                            CHANNELS 3 Zrotation Xrotation Yrotation
                            End Site
                            {
                                OFFSET -0.129673 0.000000 0.000000
                            }
                        }
                    }
                }
            }
        }
    }
    JOINT LeftUpLeg
    {
        OFFSET 0.086448 0.000000 0.000000
        CHANNELS 3 Zrotation Xrotation Yrotation
        JOINT LeftLeg
        {
            OFFSET -0.000000 -0.419609 0.000000
            CHANNELS 3 Zrotation Xrotation Yrotation
            JOINT LeftFoot
            {
                OFFSET -0.000000 -0.342023 0.000000
                CHANNELS 3 Zrotation Xrotation Yrotation
                JOINT LeftToeBase
                {
                    OFFSET -0.000000 -0.056192 0.129673
                    CHANNELS 3 Zrotation Xrotation Yrotation
                    End Site
                    {
                        OFFSET -0.000000 0.000000 0.034579
                    }
                }
            }
        }
    }
    JOINT RightUpLeg
    {
        OFFSET -0.086448 0.000000 0.000000
        CHANNELS 3 Zrotation Xrotation Yrotation
        JOINT RightLeg
        {
            OFFSET -0.000000 -0.419609 0.000000
            CHANNELS 3 Zrotation Xrotation Yrotation
            JOINT RightFoot
            {
                OFFSET -0.000000 -0.342023 0.000000
                CHANNELS 3 Zrotation Xrotation Yrotation
                JOINT RightToeBase
                {
                    OFFSET -0.000000 -0.056192 0.129673
                    CHANNELS 3 Zrotation Xrotation Yrotation
                    End Site
                    {
                        OFFSET -0.000000 0.000000 0.034579
                    }
                }
            }
        }
    }
}
MOTION
Frames:    4
Frame Time:    0.010000
-0.414532    0.783914    -0.189119    3.606459    1.031571    105.338341    -1.077552    6.677728    -5.439023    0.565199    -7.863418    -1.795144    -1.374772    1.950558    -1.677110    1.066891    4.092975    -2.114597    12.578983    -1.876274    0.472448    -13.722469    4.127684    -0.568973    -2.076640    7.397727    0.863116    5.049158    7.545171    3.017329    -14.499468    -0.115779    1.070506    17.548559    1.862103    -10.054515    -1.610711    4.386185    -0.666203    -1.828085    4.374348    0.158218    6.852795    2.486053    -17.911194    -11.668468    9.105638    1.941850    9.541402    -13.947732    -2.474221    0.000000    0.000000    0.000000    -3.084996    11.977269    -11.292087    9.724782    0.996624    -0.966450    -6.270768    -11.392585    -0.566880    0.000000    0.000000    0.000000    
-0.414572    0.783906    -0.189103    3.605155    1.029056    105.333847    -1.070692    6.684153    -5.440850    0.564082    -7.879155    -1.795636    -1.316712    1.806471    -1.690269    0.900825    4.376265    -2.092698    12.580153    -1.877289    0.480735    -13.730058    4.145864    -0.562131    -2.058335    7.379391    0.819488    4.946294    7.523036    3.012742    -14.487636    -0.100758    1.069248    17.507416    1.833367    -10.043839    -1.598087    4.386029    -0.647478    -1.863589    4.374160    0.177145    6.838646    2.438232    -17.904802    -11.667319    9.104408    1.952898    9.511606    -13.852587    -2.523817    0.000000    0.000000    0.000000    -3.082371    11.981712    -11.270440    9.728968    0.996724    -0.997560    -5.849477    -11.296899    -0.605854    0.000000    0.000000    0.000000    
-0.414589    0.783913    -0.189103    3.614524    1.032066    105.328598    -1.058523    6.691206    -5.439902    0.546840    -7.882904    -1.796274    -1.385178    1.924085    -1.657301    1.054401    4.121668    -2.093625    12.575469    -1.849623    0.478886    -13.715880    4.078533    -0.566194    -2.053336    7.399807    0.807680    4.950163    7.543796    3.024006    -14.507103    -0.128341    1.067195    17.547354    1.889148    -10.032487    -1.630102    4.374487    -0.658830    -1.874282    4.362298    0.174743    6.854125    2.492043    -17.892088    -11.673286    9.109129    1.958688    9.553986    -13.949618    -2.484315    0.000000    0.000000    0.000000    -3.091665    11.982729    -11.227287    9.741944    1.009893    -1.001771    -5.861010    -11.295794    -0.637795    0.000000    0.000000    0.000000    
-0.414619    0.783925    -0.189121    3.615022    1.033126    105.328903    -1.045500    6.680395    -5.445561    0.528923    -7.866683    -1.799175    -1.383668    1.899148    -1.632413    1.061239    4.137329    -2.068635    12.592570    -1.860321    0.483876    -13.726185    4.139055    -0.571129    -2.046355    7.374925    0.803574    4.965644    7.519009    3.019536    -14.493582    -0.124561    1.069586    17.535000    1.908785    -10.021346    -1.644795    4.357442    -0.653524    -1.869593    4.345386    0.165838    6.850116    2.490546    -17.909073    -11.673151    9.112948    1.957100    9.570432    -13.957539    -2.467764    0.000000    0.000000    0.000000    -3.087883    11.983665    -11.247835    9.728347    1.003958    -0.982434    -5.858766    -11.295956    -0.632290    0.000000    0.000000    0.000000    
